<svg width="20" height="20" viewBox="0 0 20 20" fill="none" xmlns="http://www.w3.org/2000/svg">
<g id="ph:link-bold">
<path id="Vector" d="M10.654 14.6508C10.7414 14.7379 10.8107 14.8413 10.8581 14.9553C10.9054 15.0693 10.9297 15.1914 10.9297 15.3148C10.9297 15.4382 10.9054 15.5604 10.8581 15.6743C10.8107 15.7883 10.7414 15.8918 10.654 15.9789L10.1899 16.4429C9.31057 17.3223 8.11791 17.8163 6.8743 17.8163C5.6307 17.8163 4.43804 17.3223 3.55868 16.4429C2.67932 15.5636 2.1853 14.3709 2.1853 13.1273C2.1853 11.8837 2.67932 10.691 3.55868 9.81169L5.44305 7.9281C6.28796 7.0811 7.42476 6.58921 8.62057 6.55319C9.81639 6.51717 10.9807 6.93974 11.8751 7.73435C11.9674 7.81642 12.0427 7.91588 12.0966 8.02705C12.1505 8.13821 12.182 8.2589 12.1892 8.38223C12.1965 8.50556 12.1794 8.62911 12.1389 8.74582C12.0984 8.86254 12.0353 8.97014 11.9532 9.06247C11.8711 9.15481 11.7717 9.23007 11.6605 9.28397C11.5493 9.33787 11.4287 9.36934 11.3053 9.3766C11.182 9.38385 11.0585 9.36675 10.9417 9.32625C10.825 9.28576 10.7174 9.22267 10.6251 9.1406C10.0888 8.66429 9.39074 8.4109 8.67377 8.43224C7.9568 8.45359 7.27508 8.74807 6.76805 9.25544L4.88524 11.1367C4.35771 11.6642 4.06135 12.3797 4.06135 13.1258C4.06135 13.8718 4.35771 14.5873 4.88524 15.1148C5.41277 15.6423 6.12826 15.9387 6.8743 15.9387C7.62035 15.9387 8.33583 15.6423 8.86337 15.1148L9.32743 14.6508C9.4145 14.5636 9.51789 14.4944 9.6317 14.4473C9.74551 14.4001 9.86751 14.3758 9.99071 14.3758C10.1139 14.3758 10.2359 14.4001 10.3497 14.4473C10.4635 14.4944 10.5669 14.5636 10.654 14.6508ZM16.4415 3.557C15.5614 2.679 14.369 2.18591 13.1259 2.18591C11.8827 2.18591 10.6903 2.679 9.81024 3.557L9.34618 4.02107C9.17006 4.19719 9.07112 4.43606 9.07112 4.68513C9.07112 4.9342 9.17006 5.17307 9.34618 5.34919C9.5223 5.52531 9.76117 5.62426 10.0102 5.62426C10.2593 5.62426 10.4982 5.52531 10.6743 5.34919L11.1384 4.88513C11.6659 4.3576 12.3814 4.06123 13.1274 4.06123C13.8735 4.06123 14.589 4.3576 15.1165 4.88513C15.644 5.41266 15.9404 6.12815 15.9404 6.87419C15.9404 7.62023 15.644 8.33572 15.1165 8.86325L13.2329 10.7476C12.7254 11.2548 12.0433 11.5488 11.3262 11.5696C10.609 11.5904 9.91105 11.3363 9.37509 10.8593C9.28275 10.7773 9.17515 10.7142 9.05844 10.6737C8.94172 10.6332 8.81817 10.6161 8.69484 10.6233C8.57152 10.6306 8.45082 10.6621 8.33966 10.716C8.2285 10.7699 8.12904 10.8451 8.04696 10.9375C7.96488 11.0298 7.9018 11.1374 7.86131 11.2541C7.82081 11.3708 7.80371 11.4944 7.81096 11.6177C7.81821 11.741 7.84969 11.8617 7.90359 11.9729C7.95748 12.0841 8.03275 12.1835 8.12509 12.2656C9.01882 13.06 10.1824 13.4829 11.3776 13.4476C12.5729 13.4123 13.7095 12.9215 14.5548 12.0758L16.4391 10.1922C17.3182 9.3123 17.8121 8.11957 17.8126 6.87585C17.813 5.63212 17.3199 4.43905 16.4415 3.55857V3.557Z" fill="#C6D752"/>
</g>
</svg>
